<?xml version="1.0" standalone="no"?>
<!DOCTYPE svg PUBLIC "-//W3C//DTD SVG 20010904//EN"
 "http://www.w3.org/TR/2001/REC-SVG-20010904/DTD/svg10.dtd">
<svg version="1.0" xmlns="http://www.w3.org/2000/svg"
 width="223.000000pt" height="113.000000pt" viewBox="0 0 223.000000 113.000000"
 preserveAspectRatio="xMidYMid meet">
<metadata>
Created by potrace 1.13, written by Peter Selinger 2001-2015
</metadata>
<g transform="translate(0.000000,113.000000) scale(0.100000,-0.100000)"
fill="#000000" stroke="none">
<path d="M1860 945 c-36 -12 -110 -41 -165 -64 -55 -23 -114 -47 -132 -52 -18
-5 -58 -21 -90 -36 -111 -49 -264 -105 -473 -171 -128 -41 -147 -44 -153 -29
-4 7 -6 6 -6 -4 -1 -9 -9 -19 -19 -22 -373 -109 -572 -176 -604 -205 -27 -23
-24 -83 6 -111 59 -55 218 -54 375 3 47 17 141 80 154 103 5 8 16 11 26 8 11
-3 24 2 32 12 13 16 12 17 -3 4 -26 -20 -24 5 7 71 14 29 28 68 31 85 5 28 11
33 43 39 20 3 65 16 101 29 36 13 97 31 135 40 39 8 93 26 120 40 28 13 100
43 160 65 61 23 124 47 140 54 17 7 48 19 70 26 22 6 58 20 80 30 22 10 86 36
143 59 94 37 132 43 132 20 0 -5 5 -9 10 -9 7 0 7 6 0 20 -14 25 -38 24 -120
-5z m-1020 -390 c0 -3 -14 -35 -30 -72 -57 -125 -123 -185 -254 -230 -131 -44
-261 -43 -316 3 -34 30 -40 72 -12 96 34 28 183 81 407 143 71 20 134 40 140
45 9 7 34 15 58 19 4 0 7 -1 7 -4z"/>
<path d="M1043 585 c-76 -71 -104 -95 -98 -85 4 7 -16 -6 -46 -30 -30 -23 -55
-46 -57 -51 -6 -14 14 -10 27 5 12 14 60 31 67 23 2 -2 -8 -14 -23 -28 -21
-18 -24 -19 -13 -4 8 11 -7 0 -32 -24 -26 -24 -46 -49 -45 -55 1 -6 -2 -10 -8
-9 -5 0 -16 -5 -23 -13 -10 -12 -10 -14 2 -14 16 0 47 29 73 68 20 29 43 28
43 -1 0 -49 38 -60 75 -22 14 13 25 22 25 19 0 -8 -34 -58 -45 -67 -6 -5 -4
-7 5 -4 8 2 24 19 35 38 11 19 27 35 35 37 49 11 91 95 54 109 -17 6 -59 -35
-69 -68 -4 -11 -13 -19 -21 -19 -8 0 -14 -6 -14 -14 0 -22 -45 -47 -59 -33
-18 18 -13 48 16 85 15 20 21 32 15 28 -7 -4 -12 -2 -12 4 0 6 -6 8 -12 5 -7
-4 2 5 20 20 18 15 30 31 27 36 -4 5 0 6 7 4 8 -3 29 10 47 29 36 37 40 64 4
31z"/>
</g>
</svg>
