<svg xmlns="http://www.w3.org/2000/svg" viewBox="0 0 1630 698" width="1630" height="698">
	<style>
		.s0 { fill: #000000 } 
	</style>
		<path fill-rule="evenodd" class="s0" d="m1071.8 1c1.2 0 3.5 0.7 5.2 1.5 1.7 0.8 3.7 2.8 4.5 4.5 0.8 1.7 1.5 4.8 1.5 7 0 2.3-0.7 4.6-1.6 5.5-0.9 0.9-3.3 1.5-5.7 1.5-2.5-0.1-5.8-1-8-2.3-2.1-1.2-4.4-3.7-5.2-5.5-1.3-2.8-1.3-3.6 0-6.2 0.8-1.7 2.7-3.7 4.3-4.5 1.5-0.8 3.7-1.4 5-1.5zm53.5 38.9c1.1 0.3 2.6 1.5 3.4 2.6 0.7 1.1 1.3 3.2 1.3 4.8 0 1.5-0.9 4.8-2.1 7.5-1.1 2.6-4.6 9-7.6 14.2-3.1 5.2-7.9 12.9-10.6 17-2.8 4.1-9.1 12.9-14 19.5-5 6.6-13.3 17.2-18.6 23.5-5.2 6.3-14 16.7-19.6 23-5.5 6.3-11.9 13.8-14.1 16.5-2.3 2.8-6.6 8.6-9.7 13-3 4.4-7.9 12.3-10.7 17.5-2.9 5.2-8.5 14.4-12.5 20.5-4 6.1-10.2 14.8-13.7 19.5-3.5 4.7-11.3 14.9-17.3 22.7-6.1 7.8-11.8 15.5-14.5 20.3h2.8c1.5 0 11.9-1.3 23.2-2.9 11.3-1.6 30-4.1 41.5-5.5 11.6-1.4 33.8-3.9 49.5-5.6 15.7-1.7 36.6-3.9 46.5-5 9.9-1.1 27.2-2.8 38.5-3.9 11.3-1.2 32.4-3.2 47-4.6 14.6-1.3 39.6-3.6 55.5-5 16-1.4 43-3.6 60-5 17.1-1.3 40.9-3.1 53-4 12.1-0.8 33.9-2.1 48.5-2.9 14.6-0.9 38.2-2.1 52.5-2.8 14.3-0.7 47.2-1.3 73-1.3 35.5 0 48.5 0.3 53 1.3 3.3 0.8 7.8 2.2 10 3.2 2.6 1.2 5.2 3.6 7.3 6.7 1.8 2.6 3.2 5.8 3.2 7.1 0 1.5-1 2.6-3.2 3.6-1.8 0.7-11.8 2.8-22.3 4.5-10.4 1.7-35.4 5.5-55.5 8.5-20.1 3-55.6 8.2-79 11.5-23.4 3.4-60.9 8.8-83.5 12.1-22.5 3.3-43.7 6.5-47 7-3.3 0.6-28.7 4.4-56.5 8.5-27.8 4.2-85.8 13-129 19.6-43.2 6.6-98.5 15.1-123 18.9-24.5 3.8-58.2 9-75 11.5-16.8 2.5-31.7 4.8-33.1 5.1-1.8 0.3-5.1 3.9-11.6 12.7-5 6.7-11.4 14.3-14.2 17-4.4 4.1-5.6 4.7-9.3 4.7-3 0-5.3-0.8-7.5-2.5-1.8-1.4-4-4-4.9-5.7-1-2.1-1.4-4.5-1-6.5 0.5-3 0.3-3.5-2.6-4.9-2.6-1.3-5.1-1.6-11.8-1.1-4.7 0.3-23.6 3-42 6.1-18.4 3.1-48.3 8.4-66.5 11.7-18.1 3.3-41.3 7.5-51.5 9.5-10.2 2-34.7 6.7-54.5 10.5-19.8 3.9-54.9 10.8-78 15.5-23.1 4.7-53.5 10.9-67.5 13.9-14 3-43.3 9.5-65 14.5-21.7 5-53.4 12.5-70.5 16.7-17 4.1-46.1 11.6-64.5 16.5-18.4 4.9-41.8 11.3-52 14.3-10.2 2.9-26.1 7.6-35.5 10.4-9.3 2.7-23.5 7.2-31.5 10-8 2.7-20.6 7.1-28 9.9-7.4 2.8-20.2 7.8-28.5 11.1-8.2 3.4-23.5 10.4-34 15.5-10.4 5.2-25.3 13.2-32.9 17.8-8.9 5.3-16.6 10.8-21.4 15.3-5.3 5-8.3 8.8-10.5 13.5-2.5 4.9-3.3 8.1-3.5 13.5-0.3 6.2 0 7.7 2.5 12.5 1.9 3.6 4.9 7.2 8.9 10.3 3.2 2.6 12.4 8.1 20.4 12 8 4 18.3 8.5 23 9.9 4.7 1.4 10.5 3.1 13 3.7 2.5 0.5 10.4 1.7 17.5 2.5 7.2 0.8 24.5 2 38.5 2.7 16.9 0.8 43.3 1 78 0.6 28.9-0.3 61.5-1.1 72.5-1.7 11-0.5 29-1.7 40-2.5 11-0.9 31-2.7 44.5-4.1 13.5-1.4 36.4-3.8 51-5.5 14.6-1.6 38.4-4.5 53-6.4 14.6-1.9 28.5-3.7 31-4 2.5-0.4 20.7-3.1 40.5-6.1 19.8-3 44.3-6.8 54.5-8.5 10.2-1.6 30.9-5 46-7.4 15.1-2.5 38.5-6.5 52-8.9 13.5-2.5 34.4-6.3 46.5-8.6 12.1-2.2 33.7-6.3 48-9.1 14.3-2.7 27.1-5.2 28.5-5.4 1.4-0.3 13.8-2.7 27.5-5.6 13.8-2.8 39.6-8.2 57.5-12 17.9-3.9 56.6-12.6 86-19.5 29.4-6.9 62.1-14.5 72.5-17 10.5-2.5 35-8.5 54.5-13.4 19.5-4.9 41.3-10.5 48.5-12.4 7.2-1.9 19.5-5.3 27.5-7.5 8-2.2 23.1-6.5 33.5-9.6 10.5-3.1 26-7.8 34.5-10.5 8.5-2.7 21.1-6.3 28-8 6.9-1.6 15.2-3.3 18.5-3.6 4.8-0.5 6.4-0.3 7.8 1 0.9 0.9 1.7 3 1.7 4.6 0 2-1 4.1-3.2 6.3-2.4 2.5-6.9 4.8-16.3 8.4-7.2 2.8-20.9 7.6-30.5 10.6-9.6 3.1-29 8.8-43 12.7-14 4-42.6 11.7-63.5 17.2-20.9 5.5-49.7 12.9-64 16.5-14.3 3.5-33.7 8.2-43 10.4-9.3 2.2-23.7 5.5-32 7.3-8.2 1.9-25.1 5.7-37.5 8.5-12.4 2.8-38.2 8.4-57.5 12.5-19.2 4.2-47.1 10-62 13.1-14.8 3-41.6 8.4-59.5 12-17.9 3.5-41.9 8.2-53.5 10.4-11.5 2.2-30.9 5.8-43 8-12.1 2.2-30.8 5.6-41.5 7.5-10.7 2-32.8 5.8-49 8.6-16.2 2.7-43.4 7-60.5 9.5-17 2.5-42.5 6.1-56.5 8-14 1.9-37.9 5-53 6.9-15.1 2-39.6 4.9-54.5 6.5-14.8 1.7-31.7 3.5-37.5 4.1-5.8 0.5-19.5 1.6-30.5 2.5-11 0.8-31.9 2.2-46.5 3.2-19.5 1.3-40.6 1.7-80 1.8-43.9 0-56.9-0.3-72.5-1.8-10.4-1-23.7-2.5-29.5-3.3-5.8-0.8-15.7-2.6-22-4-6.3-1.3-16.2-3.8-22-5.5-5.8-1.8-15-5-20.5-7.1-5.5-2.2-13.1-5.6-17-7.6-3.8-2.1-10.1-6.6-13.8-10.2-4.5-4.3-7.9-8.6-9.8-12.5-1.6-3.3-3.4-8.9-4-12.5-0.8-5.1-0.7-8.1 0.5-14 1-4.6 3.4-11.1 6.3-16.9 3-6 6.6-11.3 9.8-14.4 2.8-2.8 7.9-7.4 11.5-10.2 3.6-2.9 11.2-8.4 17-12.3 5.8-3.8 16.1-10 23-13.6 6.9-3.6 18.4-9.2 25.5-12.4 7.2-3.3 22-9.5 33-13.9 11-4.5 27-10.6 35.5-13.6 8.5-3.1 24.7-8.5 36-12.1 11.3-3.6 37.2-11.3 57.5-17.1 20.4-5.9 58.2-16 84-22.5 25.9-6.5 69.5-16.8 97-23 27.5-6.1 65.5-14.4 84.5-18.5 19-4.1 53.6-11.3 77-16 23.4-4.7 58.9-11.7 79-15.6 20.1-3.9 44.6-8.6 54.5-10.5 9.9-1.9 31.5-5.9 48-8.9 16.5-3 31.6-5.7 33.5-6.1 1.9-0.3 11.6-2.3 21.5-4.5 9.9-2.1 23-5.3 29-7 6.1-1.7 13.3-4.1 16-5.3 4.2-1.9 5.3-2.9 6.9-6.7 1-2.4 2.1-7.3 2.4-10.9 0.5-6.2 0.4-6.6-2.4-8.9-2.7-2.1-3.5-2.3-10.4-1.7-4.1 0.3-14.9 1.7-24 3-9.1 1.4-28.9 4.4-44 6.6-15.1 2.2-31.8 4.7-37 5.5-5.2 0.8-17.1 2.6-26.5 4-9.3 1.5-29.6 4.6-45 7-15.4 2.4-43.3 6.9-62 10-18.7 3-45 7.4-58.5 9.6-13.5 2.2-33.5 5.6-44.5 7.5-11 1.8-42 7.2-69 11.8-26.9 4.7-71 12.4-98 17.1-26.9 4.7-59.6 10.4-72.5 12.6-12.9 2.3-33.4 5.8-45.5 7.9-12.1 2.1-28.5 5-36.5 6.4-8 1.4-22.6 3.4-32.5 4.5-9.9 1.2-19.5 2.1-21.2 2.1-1.8 0-4-0.7-4.8-1.5-0.9-0.9-1.3-2.4-0.9-3.8 0.4-1.2 1.4-3.3 2.4-4.7 1.1-1.7 6.2-4.5 16.1-8.7 7.9-3.4 19.6-8.2 25.9-10.8 6.3-2.6 24.3-9.6 40-15.7 15.7-6 43.6-16.6 62-23.5 18.4-6.9 40.7-15.1 49.5-18.3 8.8-3.2 26.6-9.7 39.5-14.5 12.9-4.8 36.6-13.4 52.5-19.2 16-5.7 40.3-14.5 54-19.5 13.8-5 42.8-15 64.5-22.3 21.7-7.3 54.8-18.1 73.5-24 18.7-5.9 44.1-13.6 56.5-17.1 12.4-3.6 32.9-9.1 45.5-12.3 12.7-3.3 34.7-8.4 49-11.4 14.3-3 31.2-6.2 37.5-7.1 6.3-0.9 17.6-2.3 25-3.2 7.4-0.9 16.7-2.4 20.5-3.4 3.9-1 9.5-2.7 12.5-3.9 3-1.1 8-4.2 11.1-6.8 3.1-2.7 8.3-6.1 11.5-7.7 3.6-1.8 8-3.1 11.4-3.4 3.6-0.2 6.9 0.2 9.5 1.2 2.2 0.9 5.2 2.7 6.8 4.1 1.5 1.4 3.8 4.3 5.2 6.5 1.4 2.2 3.3 4 4.3 4 0.9 0.1 2.9-1.6 4.3-3.7 1.4-2.1 4.3-7.1 6.3-11 2-4 5.5-10.3 7.7-14 2.3-3.8 5.6-8.6 7.3-10.7 2.1-2.6 5.3-4.9 9.6-6.9 3.6-1.6 7.1-2.6 7.8-2.3 0.6 0.3 1.9 2.3 2.8 4.4 1.2 2.7 1.5 5.7 1.2 11.2-0.3 5.5-1.4 9.7-3.9 16-2 4.7-6.8 13.7-10.8 20-4 6.3-11.4 19.8-16.5 30-5.1 10.2-11.3 24.2-13.9 31.3-2.6 7-5.8 16.6-7.2 21.4-1.4 4.9-2.5 10-2.5 11.6 0 1.7 0.6 2.9 1.8 3.2 0.9 0.3 2.2 0 2.9-0.7 0.6-0.7 6.5-8.9 13-18.3 6.6-9.4 16.4-23.3 21.8-31 5.4-7.7 13.4-19.4 17.8-26 4.3-6.6 9.1-14.7 10.7-18 1.6-3.3 3.1-7.6 3.5-9.5 0.5-2.9-0.1-4.8-3.1-10.5-3.5-6.5-3.8-7.7-4.6-27l4.3-8.5c2.4-4.7 7.1-12.3 10.4-16.9 3.3-4.6 10.1-12.6 15-17.8 7-7.4 10.4-10.2 15.5-12.6 6.2-2.9 6.9-3 14.5-2.4 4.4 0.4 10.5 1 13.5 1.4 4.8 0.5 6.1 0.3 10.3-2 2.6-1.5 7-5.5 9.9-8.9 2.8-3.5 6.6-8.5 8.3-11.3 1.8-2.7 5.4-7.7 8.2-11 2.7-3.3 6.9-7.8 9.2-10 2.3-2.2 4.9-4.3 5.8-4.6 0.9-0.3 2.5-0.3 3.6 0zm-83.7 75.2c-2.2 1.9-6.4 6.8-9.5 10.9-3 4.1-7 10.4-8.8 14-1.8 3.6-3.7 8.4-4.1 10.8-0.7 3.9-0.5 4.2 1.6 4.2 1.4 0 5-2.7 9.8-7.3 4.2-3.9 11-11.7 15.2-17.2 4.1-5.5 8.5-12.1 9.8-14.8 1.3-2.6 2.4-5.4 2.4-6.2 0-0.9-0.9-1.5-2.2-1.5-1.3 0-4.1 0.9-6.3 1.8-2.2 1-5.8 3.4-7.9 5.3zm-156.7 110.9c-4.2 5.2-9.1 10.7-11 12.1-2.5 2-3.9 2.5-5.1 1.8-1-0.5-2.2-2.6-2.8-4.7-0.5-2-1-5.4-1-7.5 0-2-0.6-5.2-1.3-7-0.9-2.2-2.4-3.6-4.8-4.5-1.9-0.7-6.8-1.2-10.9-1.2-4.1 0-12.2 0.7-18 1.6-5.8 0.8-18.8 3.1-29 5-10.2 1.9-26.6 5.5-36.5 7.9-9.9 2.4-28.1 7.3-40.5 10.9-12.4 3.5-30.1 8.7-39.5 11.6-9.3 2.8-29.8 9.1-45.5 14-15.7 4.9-45.8 14.8-67 21.9-21.2 7.1-46.8 15.8-57 19.4-10.2 3.6-32.4 11.5-49.5 17.5-17 6.1-37.3 13.4-45 16.2-7.7 2.9-22.5 8.5-33 12.5-10.4 4.1-26.2 10.3-35 13.8-8.8 3.6-19.8 8.3-24.5 10.5-4.7 2.2-9.4 4.7-10.5 5.5-1.9 1.6-1.9 1.6 1.8 1.7 2 0 17.3-2.2 34-4.9 16.6-2.8 39.7-6.6 51.2-8.6 11.6-2 33.2-5.8 48-8.5 14.9-2.7 49-8.6 76-13 27-4.4 58.5-9.6 70-11.5 11.5-1.9 30.9-5 43-6.9 12.1-2 33.3-5.4 47-7.5 13.8-2.2 31.3-5 39-6.1 7.7-1.1 34.3-5.4 59-9.6 24.8-4.1 51-8.6 58.3-9.9 7.2-1.4 19.4-3.6 27-5 7.5-1.4 17.9-3.6 23.1-4.8l9.4-2.2c4.2-8.5 7.7-16.6 10.5-23.5 2.7-6.9 6.4-16.9 8.1-22.3 2.1-6.5 3.1-11.7 3.1-16 0-3.6-0.8-8.5-1.9-11.7-1-3-4-9.9-6.5-15.3-2.5-5.3-4.7-9.7-4.9-9.7-0.2 0-4.8 6.4-10.3 14.2-5.4 7.9-13.3 18.5-17.5 23.8zm480.1 37c-11.8 0.6-33.4 2-48 3.1-14.6 1-34.4 2.6-44 3.4-9.6 0.9-39.8 3.8-67 6.6-27.2 2.7-54.9 5.6-61.5 6.4-6.6 0.8-28.2 3.3-48 5.5-19.8 2.3-44.8 5.2-55.5 6.6-10.7 1.3-27.2 3.6-36.5 5-9.4 1.3-22.6 3.6-29.5 4.9-6.9 1.4-15.2 3.5-18.5 4.7-3.3 1.1-7.4 3.1-9 4.3-1.6 1.2-4.7 5.4-6.7 9.3-2.3 4.3-3.7 8.3-3.5 9.9 0.2 2.4 0.8 2.9 4.2 3.5 2.2 0.4 7.6 0.5 12 0.2 4.4-0.3 16.5-1.8 27-3.4 10.5-1.6 33.8-5.2 52-8 18.2-2.8 46-7.1 62-9.6 16-2.4 44.8-6.9 64-9.9 19.3-3 44.7-7 56.5-8.9 11.8-1.9 27.3-4.4 34.5-5.5 7.2-1.1 30.5-4.8 52-8.1 21.5-3.3 48-7.4 59-9 11-1.7 22.5-3.5 25.5-4 3-0.5 14.7-2.3 26-4 11.3-1.7 20.6-3.2 20.7-3.3 0.1-0.1-5.3-0.5-12-1-6.7-0.4-14.2-0.6-16.7-0.5-2.5 0.1-7.4 0.3-11 0.5-3.6 0.1-16.2 0.7-28 1.3z"/>
</svg>